# xmcd CD database file
#
# Track frame offsets:
#	150
#	19643
#	43617
#	67188
#	80031
#	102463
#	118763
#	143810
#	171560
#	181195
#	205142
#	228305
#	260831
#
# Disc length: 4319 seconds
#
# Revision: 0
# Processed by: cddbd v1.5.2PL0 Copyright (c) Steve Scherf et al.
# Submitted via: CDex 1.51
#
DISCID=c010dd0d
DTITLE=Various Artist - Hausmusik
DYEAR=2009
DGENRE=Jazz
TTITLE0=Birth Of Soul
TTITLE1=Caresse
TTITLE2=Love Is My Religion
TTITLE3=Rhumba Meditation
TTITLE4=Minimal Piece Of Peace
TTITLE5=Soulfusion
TTITLE6=Drowing In Tears Of Joy
TTITLE7=Electric Love Shake
TTITLE8=Vibrant Song
TTITLE9=It Is Allright
TTITLE10=Soft Sugar
TTITLE11=In The Mood
TTITLE12=Data
EXTD=YEAR: 2009
EXTT0=
EXTT1=
EXTT2=
EXTT3=
EXTT4=
EXTT5=
EXTT6=
EXTT7=
EXTT8=
EXTT9=
EXTT10=
EXTT11=
EXTT12=
PLAYORDER=
